<mxfile host="app.diagrams.net" modified="2022-07-18T02:23:17.706Z" agent="5.0 (Macintosh; Intel Mac OS X 10_15_7) AppleWebKit/537.36 (KHTML, like Gecko) Chrome/103.0.0.0 Safari/537.36" etag="Hd7XU4uG_i4seh5tbCIv" version="20.1.1" type="github">
  <diagram id="HNlSHaBPxJdd0BPZfgMp" name="Page-1">
    <mxGraphModel dx="1426" dy="826" grid="1" gridSize="10" guides="1" tooltips="1" connect="1" arrows="1" fold="1" page="1" pageScale="1" pageWidth="827" pageHeight="1169" math="0" shadow="0">
      <root>
        <mxCell id="0" />
        <mxCell id="1" parent="0" />
        <mxCell id="dLRORY5KennZV_oS4DlX-14" value="私有云产品开发流程" style="swimlane;childLayout=stackLayout;resizeParent=1;resizeParentMax=0;startSize=20;" vertex="1" parent="1">
          <mxGeometry x="50" y="30" width="780" height="850" as="geometry">
            <mxRectangle x="50" y="30" width="70" height="30" as="alternateBounds" />
          </mxGeometry>
        </mxCell>
        <mxCell id="dLRORY5KennZV_oS4DlX-40" value="涂鸦硬件方案" style="swimlane;startSize=20;" vertex="1" parent="dLRORY5KennZV_oS4DlX-14">
          <mxGeometry y="20" width="170" height="830" as="geometry">
            <mxRectangle y="20" width="40" height="460" as="alternateBounds" />
          </mxGeometry>
        </mxCell>
        <mxCell id="dLRORY5KennZV_oS4DlX-67" value="" style="edgeStyle=orthogonalEdgeStyle;rounded=0;orthogonalLoop=1;jettySize=auto;html=1;" edge="1" parent="dLRORY5KennZV_oS4DlX-40" source="dLRORY5KennZV_oS4DlX-64" target="dLRORY5KennZV_oS4DlX-66">
          <mxGeometry relative="1" as="geometry" />
        </mxCell>
        <mxCell id="dLRORY5KennZV_oS4DlX-64" value="硬件方案&lt;br&gt;模型数据" style="shape=parallelogram;html=1;strokeWidth=2;perimeter=parallelogramPerimeter;whiteSpace=wrap;rounded=1;arcSize=12;size=0.23;fillColor=#f8cecc;strokeColor=#b85450;" vertex="1" parent="dLRORY5KennZV_oS4DlX-40">
          <mxGeometry x="30" y="163" width="100" height="60" as="geometry" />
        </mxCell>
        <mxCell id="dLRORY5KennZV_oS4DlX-70" value="" style="edgeStyle=orthogonalEdgeStyle;rounded=0;orthogonalLoop=1;jettySize=auto;html=1;" edge="1" parent="dLRORY5KennZV_oS4DlX-40" source="dLRORY5KennZV_oS4DlX-66" target="dLRORY5KennZV_oS4DlX-69">
          <mxGeometry relative="1" as="geometry" />
        </mxCell>
        <mxCell id="dLRORY5KennZV_oS4DlX-66" value="物模型方案" style="whiteSpace=wrap;html=1;strokeWidth=2;rounded=1;arcSize=12;fillColor=#f8cecc;strokeColor=#b85450;" vertex="1" parent="dLRORY5KennZV_oS4DlX-40">
          <mxGeometry x="33" y="319" width="94" height="47" as="geometry" />
        </mxCell>
        <mxCell id="dLRORY5KennZV_oS4DlX-73" value="" style="edgeStyle=orthogonalEdgeStyle;rounded=0;orthogonalLoop=1;jettySize=auto;html=1;" edge="1" parent="dLRORY5KennZV_oS4DlX-40" source="dLRORY5KennZV_oS4DlX-69" target="dLRORY5KennZV_oS4DlX-72">
          <mxGeometry relative="1" as="geometry" />
        </mxCell>
        <mxCell id="dLRORY5KennZV_oS4DlX-69" value="面板库" style="whiteSpace=wrap;html=1;strokeWidth=2;rounded=1;arcSize=12;fillColor=#f8cecc;strokeColor=#b85450;" vertex="1" parent="dLRORY5KennZV_oS4DlX-40">
          <mxGeometry x="33" y="390" width="94" height="47" as="geometry" />
        </mxCell>
        <mxCell id="dLRORY5KennZV_oS4DlX-72" value="硬件交付物（模组、固件等）" style="whiteSpace=wrap;html=1;strokeWidth=2;rounded=1;arcSize=12;fillColor=#f8cecc;strokeColor=#b85450;" vertex="1" parent="dLRORY5KennZV_oS4DlX-40">
          <mxGeometry x="33" y="462" width="94" height="47" as="geometry" />
        </mxCell>
        <mxCell id="dLRORY5KennZV_oS4DlX-15" value="产品开发平台" style="swimlane;startSize=20;" vertex="1" parent="dLRORY5KennZV_oS4DlX-14">
          <mxGeometry x="170" y="20" width="240" height="830" as="geometry">
            <mxRectangle y="20" width="40" height="460" as="alternateBounds" />
          </mxGeometry>
        </mxCell>
        <mxCell id="dLRORY5KennZV_oS4DlX-27" value="" style="edgeStyle=orthogonalEdgeStyle;rounded=0;orthogonalLoop=1;jettySize=auto;html=1;" edge="1" parent="dLRORY5KennZV_oS4DlX-15" source="dLRORY5KennZV_oS4DlX-19" target="dLRORY5KennZV_oS4DlX-26">
          <mxGeometry relative="1" as="geometry" />
        </mxCell>
        <mxCell id="dLRORY5KennZV_oS4DlX-19" value="账号登入" style="rounded=1;whiteSpace=wrap;html=1;arcSize=50;fillColor=#ffe6cc;strokeColor=#d79b00;" vertex="1" parent="dLRORY5KennZV_oS4DlX-15">
          <mxGeometry x="45" y="40" width="80" height="40" as="geometry" />
        </mxCell>
        <mxCell id="dLRORY5KennZV_oS4DlX-29" value="" style="edgeStyle=orthogonalEdgeStyle;rounded=0;orthogonalLoop=1;jettySize=auto;html=1;fillColor=#dae8fc;strokeColor=#6c8ebf;" edge="1" parent="dLRORY5KennZV_oS4DlX-15" source="dLRORY5KennZV_oS4DlX-26" target="dLRORY5KennZV_oS4DlX-28">
          <mxGeometry relative="1" as="geometry" />
        </mxCell>
        <mxCell id="dLRORY5KennZV_oS4DlX-26" value="创建产品" style="rounded=1;whiteSpace=wrap;html=1;fillColor=#dae8fc;strokeColor=#6c8ebf;" vertex="1" parent="dLRORY5KennZV_oS4DlX-15">
          <mxGeometry x="45" y="101" width="80" height="40" as="geometry" />
        </mxCell>
        <mxCell id="dLRORY5KennZV_oS4DlX-31" value="" style="edgeStyle=orthogonalEdgeStyle;rounded=0;orthogonalLoop=1;jettySize=auto;html=1;fillColor=#dae8fc;strokeColor=#6c8ebf;" edge="1" parent="dLRORY5KennZV_oS4DlX-15" source="dLRORY5KennZV_oS4DlX-28" target="dLRORY5KennZV_oS4DlX-30">
          <mxGeometry relative="1" as="geometry" />
        </mxCell>
        <mxCell id="dLRORY5KennZV_oS4DlX-28" value="选择&lt;br&gt;品类/方案" style="whiteSpace=wrap;html=1;rounded=1;fillColor=#dae8fc;strokeColor=#6c8ebf;" vertex="1" parent="dLRORY5KennZV_oS4DlX-15">
          <mxGeometry x="45" y="173" width="80" height="40" as="geometry" />
        </mxCell>
        <mxCell id="dLRORY5KennZV_oS4DlX-33" value="" style="edgeStyle=orthogonalEdgeStyle;rounded=0;orthogonalLoop=1;jettySize=auto;html=1;fillColor=#dae8fc;strokeColor=#6c8ebf;" edge="1" parent="dLRORY5KennZV_oS4DlX-15" target="dLRORY5KennZV_oS4DlX-32">
          <mxGeometry relative="1" as="geometry">
            <mxPoint x="85" y="290" as="sourcePoint" />
          </mxGeometry>
        </mxCell>
        <mxCell id="dLRORY5KennZV_oS4DlX-30" value="生成产品ID" style="whiteSpace=wrap;html=1;rounded=1;fillColor=#dae8fc;strokeColor=#6c8ebf;" vertex="1" parent="dLRORY5KennZV_oS4DlX-15">
          <mxGeometry x="45" y="244" width="80" height="40" as="geometry" />
        </mxCell>
        <mxCell id="dLRORY5KennZV_oS4DlX-35" value="" style="edgeStyle=orthogonalEdgeStyle;rounded=0;orthogonalLoop=1;jettySize=auto;html=1;fillColor=#dae8fc;strokeColor=#6c8ebf;" edge="1" parent="dLRORY5KennZV_oS4DlX-15" source="dLRORY5KennZV_oS4DlX-32" target="dLRORY5KennZV_oS4DlX-34">
          <mxGeometry relative="1" as="geometry" />
        </mxCell>
        <mxCell id="dLRORY5KennZV_oS4DlX-32" value="选择/定义&lt;br&gt;产品功能" style="whiteSpace=wrap;html=1;rounded=1;fillColor=#dae8fc;strokeColor=#6c8ebf;" vertex="1" parent="dLRORY5KennZV_oS4DlX-15">
          <mxGeometry x="45" y="322" width="80" height="40" as="geometry" />
        </mxCell>
        <mxCell id="dLRORY5KennZV_oS4DlX-34" value="选择/开发&lt;br&gt;设备面板" style="whiteSpace=wrap;html=1;rounded=1;fillColor=#dae8fc;strokeColor=#6c8ebf;" vertex="1" parent="dLRORY5KennZV_oS4DlX-15">
          <mxGeometry x="45" y="393" width="80" height="40" as="geometry" />
        </mxCell>
        <mxCell id="dLRORY5KennZV_oS4DlX-39" value="" style="edgeStyle=orthogonalEdgeStyle;rounded=0;orthogonalLoop=1;jettySize=auto;html=1;fillColor=#dae8fc;strokeColor=#6c8ebf;" edge="1" parent="dLRORY5KennZV_oS4DlX-15" source="dLRORY5KennZV_oS4DlX-36" target="dLRORY5KennZV_oS4DlX-38">
          <mxGeometry relative="1" as="geometry" />
        </mxCell>
        <mxCell id="dLRORY5KennZV_oS4DlX-36" value="选择&lt;br&gt;硬件模组" style="whiteSpace=wrap;html=1;rounded=1;fillColor=#dae8fc;strokeColor=#6c8ebf;" vertex="1" parent="dLRORY5KennZV_oS4DlX-15">
          <mxGeometry x="45" y="465" width="80" height="40" as="geometry" />
        </mxCell>
        <mxCell id="dLRORY5KennZV_oS4DlX-37" value="" style="edgeStyle=orthogonalEdgeStyle;rounded=0;orthogonalLoop=1;jettySize=auto;html=1;fillColor=#dae8fc;strokeColor=#6c8ebf;" edge="1" parent="dLRORY5KennZV_oS4DlX-15" source="dLRORY5KennZV_oS4DlX-34" target="dLRORY5KennZV_oS4DlX-36">
          <mxGeometry relative="1" as="geometry" />
        </mxCell>
        <mxCell id="dLRORY5KennZV_oS4DlX-38" value="选择/开发/上传固件" style="whiteSpace=wrap;html=1;rounded=1;fillColor=#dae8fc;strokeColor=#6c8ebf;" vertex="1" parent="dLRORY5KennZV_oS4DlX-15">
          <mxGeometry x="39.5" y="533" width="91" height="45.5" as="geometry" />
        </mxCell>
        <mxCell id="dLRORY5KennZV_oS4DlX-56" value="设备调试（公有云测试）" style="whiteSpace=wrap;html=1;rounded=1;fillColor=#dae8fc;strokeColor=#6c8ebf;" vertex="1" parent="dLRORY5KennZV_oS4DlX-15">
          <mxGeometry x="39.5" y="613" width="91" height="45.5" as="geometry" />
        </mxCell>
        <mxCell id="dLRORY5KennZV_oS4DlX-57" value="" style="edgeStyle=orthogonalEdgeStyle;rounded=0;orthogonalLoop=1;jettySize=auto;html=1;fillColor=#dae8fc;strokeColor=#6c8ebf;" edge="1" parent="dLRORY5KennZV_oS4DlX-15" source="dLRORY5KennZV_oS4DlX-38" target="dLRORY5KennZV_oS4DlX-56">
          <mxGeometry relative="1" as="geometry" />
        </mxCell>
        <mxCell id="dLRORY5KennZV_oS4DlX-61" value="" style="edgeStyle=orthogonalEdgeStyle;rounded=0;orthogonalLoop=1;jettySize=auto;html=1;" edge="1" parent="dLRORY5KennZV_oS4DlX-15" source="dLRORY5KennZV_oS4DlX-58" target="dLRORY5KennZV_oS4DlX-60">
          <mxGeometry relative="1" as="geometry" />
        </mxCell>
        <mxCell id="dLRORY5KennZV_oS4DlX-76" style="edgeStyle=orthogonalEdgeStyle;rounded=0;orthogonalLoop=1;jettySize=auto;html=1;exitX=1;exitY=0.5;exitDx=0;exitDy=0;entryX=1;entryY=0.5;entryDx=0;entryDy=0;" edge="1" parent="dLRORY5KennZV_oS4DlX-15" source="dLRORY5KennZV_oS4DlX-58" target="dLRORY5KennZV_oS4DlX-38">
          <mxGeometry relative="1" as="geometry">
            <Array as="points">
              <mxPoint x="170" y="707" />
              <mxPoint x="170" y="556" />
            </Array>
          </mxGeometry>
        </mxCell>
        <mxCell id="dLRORY5KennZV_oS4DlX-77" value="固件升级" style="edgeLabel;html=1;align=center;verticalAlign=middle;resizable=0;points=[];" vertex="1" connectable="0" parent="dLRORY5KennZV_oS4DlX-76">
          <mxGeometry x="0.1183" y="-1" relative="1" as="geometry">
            <mxPoint x="-1" as="offset" />
          </mxGeometry>
        </mxCell>
        <mxCell id="dLRORY5KennZV_oS4DlX-58" value="完成发布" style="whiteSpace=wrap;html=1;rounded=1;fillColor=#dae8fc;strokeColor=#6c8ebf;" vertex="1" parent="dLRORY5KennZV_oS4DlX-15">
          <mxGeometry x="39.5" y="684" width="91" height="45.5" as="geometry" />
        </mxCell>
        <mxCell id="dLRORY5KennZV_oS4DlX-59" value="" style="edgeStyle=orthogonalEdgeStyle;rounded=0;orthogonalLoop=1;jettySize=auto;html=1;fillColor=#dae8fc;strokeColor=#6c8ebf;" edge="1" parent="dLRORY5KennZV_oS4DlX-15" source="dLRORY5KennZV_oS4DlX-56" target="dLRORY5KennZV_oS4DlX-58">
          <mxGeometry relative="1" as="geometry" />
        </mxCell>
        <mxCell id="dLRORY5KennZV_oS4DlX-60" value="完成开发" style="whiteSpace=wrap;html=1;rounded=1;arcSize=50;fillColor=#ffe6cc;strokeColor=#d79b00;" vertex="1" parent="dLRORY5KennZV_oS4DlX-15">
          <mxGeometry x="39.5" y="755.5" width="91" height="45.5" as="geometry" />
        </mxCell>
        <mxCell id="dLRORY5KennZV_oS4DlX-79" value="" style="swimlane;startSize=0;fillColor=none;strokeWidth=2;dashed=1;" vertex="1" parent="dLRORY5KennZV_oS4DlX-15">
          <mxGeometry x="22" y="303" width="180" height="290" as="geometry" />
        </mxCell>
        <mxCell id="dLRORY5KennZV_oS4DlX-16" value="私有云基座" style="swimlane;startSize=20;" vertex="1" parent="dLRORY5KennZV_oS4DlX-14">
          <mxGeometry x="410" y="20" width="200" height="830" as="geometry">
            <mxRectangle x="120" y="20" width="40" height="460" as="alternateBounds" />
          </mxGeometry>
        </mxCell>
        <mxCell id="dLRORY5KennZV_oS4DlX-17" value="运营平台" style="swimlane;startSize=20;" vertex="1" parent="dLRORY5KennZV_oS4DlX-14">
          <mxGeometry x="610" y="20" width="170" height="830" as="geometry">
            <mxRectangle x="240" y="20" width="40" height="460" as="alternateBounds" />
          </mxGeometry>
        </mxCell>
        <mxCell id="dLRORY5KennZV_oS4DlX-65" value="" style="edgeStyle=orthogonalEdgeStyle;rounded=0;orthogonalLoop=1;jettySize=auto;html=1;" edge="1" parent="dLRORY5KennZV_oS4DlX-14" source="dLRORY5KennZV_oS4DlX-64" target="dLRORY5KennZV_oS4DlX-28">
          <mxGeometry relative="1" as="geometry" />
        </mxCell>
        <mxCell id="dLRORY5KennZV_oS4DlX-68" value="" style="edgeStyle=orthogonalEdgeStyle;rounded=0;orthogonalLoop=1;jettySize=auto;html=1;" edge="1" parent="dLRORY5KennZV_oS4DlX-14" source="dLRORY5KennZV_oS4DlX-66" target="dLRORY5KennZV_oS4DlX-32">
          <mxGeometry relative="1" as="geometry" />
        </mxCell>
        <mxCell id="dLRORY5KennZV_oS4DlX-71" value="" style="edgeStyle=orthogonalEdgeStyle;rounded=0;orthogonalLoop=1;jettySize=auto;html=1;" edge="1" parent="dLRORY5KennZV_oS4DlX-14" source="dLRORY5KennZV_oS4DlX-69" target="dLRORY5KennZV_oS4DlX-34">
          <mxGeometry relative="1" as="geometry" />
        </mxCell>
        <mxCell id="dLRORY5KennZV_oS4DlX-74" value="" style="edgeStyle=orthogonalEdgeStyle;rounded=0;orthogonalLoop=1;jettySize=auto;html=1;entryX=0;entryY=0.5;entryDx=0;entryDy=0;" edge="1" parent="dLRORY5KennZV_oS4DlX-14" source="dLRORY5KennZV_oS4DlX-72" target="dLRORY5KennZV_oS4DlX-38">
          <mxGeometry relative="1" as="geometry">
            <Array as="points">
              <mxPoint x="180" y="506" />
              <mxPoint x="180" y="576" />
            </Array>
          </mxGeometry>
        </mxCell>
        <mxCell id="dLRORY5KennZV_oS4DlX-75" value="" style="edgeStyle=orthogonalEdgeStyle;rounded=0;orthogonalLoop=1;jettySize=auto;html=1;" edge="1" parent="dLRORY5KennZV_oS4DlX-14" source="dLRORY5KennZV_oS4DlX-72" target="dLRORY5KennZV_oS4DlX-36">
          <mxGeometry relative="1" as="geometry" />
        </mxCell>
        <mxCell id="dLRORY5KennZV_oS4DlX-80" value="产品开发&lt;br&gt;核心功能" style="text;html=1;align=center;verticalAlign=middle;resizable=0;points=[];autosize=1;strokeColor=none;fillColor=none;fontStyle=1" vertex="1" parent="1">
          <mxGeometry x="355" y="450" width="70" height="40" as="geometry" />
        </mxCell>
      </root>
    </mxGraphModel>
  </diagram>
</mxfile>
